<svg width="92" height="80" viewBox="0 0 92 80" fill="none" xmlns="http://www.w3.org/2000/svg">
<path d="M46 74.2857C40.825 72.3429 31.4333 70.8572 24.9166 70.8572C18.5916 70.8572 12.075 71.5429 6.70831 73.2572C6.32498 73.3714 6.13331 73.3714 5.74998 73.3714C4.79165 73.3714 3.83331 72.8 3.83331 72.2286V38.8572C6.13331 37.8286 8.62498 37.1429 11.5 36.5714C15.755 35.7714 20.4316 35.4286 24.9166 35.4286C32.3916 35.4286 40.4416 36.3429 46 38.8572C51.5583 36.3429 59.6083 35.4286 67.0833 35.4286C71.5683 35.4286 76.245 35.7714 80.5 36.5714C83.375 37.1429 85.8667 37.8286 88.1667 38.8572V72.2286C88.1667 72.8 87.2083 73.3714 86.25 73.3714C85.8667 73.3714 85.675 73.3714 85.2917 73.2572C79.925 71.5429 73.4083 70.8572 67.0833 70.8572C60.5667 70.8572 51.175 72.3429 46 74.2857ZM42.1667 42.2857C36.9533 40.9143 30.0533 40 24.9166 40C20.3166 40 15.7166 40.3429 11.5 41.1429V67.4286C15.7166 66.6286 20.3166 66.2857 24.9166 66.2857C30.0533 66.2857 36.9533 67.2 42.1667 68.5714V42.2857ZM49.8333 68.5714C55.0467 67.2 61.9467 66.2857 67.0833 66.2857C71.6833 66.2857 76.2833 66.6286 80.5 67.4286V41.1429C76.2833 40.3429 71.6833 40 67.0833 40C61.9467 40 55.0467 40.9143 49.8333 42.2857V68.5714ZM53.6667 62.5143C57.3467 61.7143 61.7933 61.3257 67.0833 61.3257C71.07 61.3257 74.29 61.5086 76.6667 61.8743V58.4457C73.3317 58.08 70.1117 57.8972 67.0833 57.8972C61.9467 57.8972 57.5 58.2857 53.6667 58.88V62.5143ZM53.6667 56.4343C57.3467 55.6343 61.7933 55.2229 67.0833 55.2229C71.07 55.2229 74.29 55.4057 76.6667 55.7714V52.3429C73.3317 51.9772 70.1117 51.8172 67.0833 51.8172C62.1767 51.8172 57.6917 52.16 53.6667 52.8457V56.4343ZM53.6667 50.2857C57.3467 49.5314 61.7933 49.1429 67.0833 49.1429C70.5717 49.1429 73.83 49.3486 76.6667 49.7829V46.24C73.3317 45.8972 70.1117 45.7143 67.0833 45.7143C62.0233 45.7143 57.5 46.0572 53.6667 46.7657V50.2857Z" fill="white"/>
<path d="M73.9949 15.221C53.8383 16.5055 47.0751 25.3509 40.7164 32.7017L44.5592 34.0501L47.4413 30.7847C48.4164 31.1307 49.4491 31.4206 50.2265 31.4891C73.9795 33.5818 86.5977 8.6804 86.5977 8.6804C83.7159 11.4869 68.5101 10.5298 57.3521 11.0769C46.1941 11.6241 40.3404 17.6116 39.618 20.6083C38.8956 23.605 42.0424 26.5601 42.0424 26.5601C52.4013 13.3186 73.9949 15.221 73.9949 15.221Z" fill="white"/>
</svg>
